# xmcd
#
# Track frame offsets: 
#        150
#        20983
#        41456
#        65445
#        89112
#        107742
#        127367
#        146156
#        169351
#        194437
#        214356
#        235161
#
# Disc length: 3404 seconds
#
# Revision: 0
# Processed by: cddbd v1.5.2PL0 Copyright (c) Steve Scherf et al.
# Submitted via: ExactAudioCopyFreeDBPlugin 1.0
#
DISCID=c50d4a0c
DTITLE=文章 - [DTS ES  正品]【NRG】如果云知道
DYEAR=2003
DGENRE=DTS ES
TTITLE0=可不可以不勇敢
TTITLE1=如果云知道
TTITLE2=大敦煌
TTITLE3=如果没有你
TTITLE4=我是什么时候为了你活着
TTITLE5=千年泪
TTITLE6=寂寞在唱歌
TTITLE7=我爱上这部电影(原创)
TTITLE8=爱如空气
TTITLE9=美丽心情
TTITLE10=求佛
TTITLE11=My love my fate(原创)
EXTD=
EXTT0=
EXTT1=
EXTT2=
EXTT3=
EXTT4=
EXTT5=
EXTT6=
EXTT7=
EXTT8=
EXTT9=
EXTT10=
EXTT11=
PLAYORDER=
